<?xml version="1.0" encoding="UTF-8"?> <svg xmlns="http://www.w3.org/2000/svg" xmlns:xlink="http://www.w3.org/1999/xlink" width="522px" height="103px" viewBox="0 0 522 103" version="1.1"><title>Asset 1</title><defs><linearGradient x1="57.8152247%" y1="72.2957189%" x2="40.8877805%" y2="-3.53819766%" id="linearGradient-1"><stop stop-color="#FFFFFF" offset="50%"></stop><stop stop-color="#F4F4F5" offset="62%"></stop><stop stop-color="#D7D8D9" offset="83%"></stop><stop stop-color="#BCBEC0" offset="99%"></stop></linearGradient><linearGradient x1="16.7001997%" y1="66.9470717%" x2="107.78671%" y2="33.3172101%" id="linearGradient-2"><stop stop-color="#FFFFFF" offset="22%"></stop><stop stop-color="#FDFDFD" offset="47%"></stop><stop stop-color="#F5F5F6" offset="60%"></stop><stop stop-color="#E8E8E9" offset="70%"></stop><stop stop-color="#D5D6D7" offset="79%"></stop><stop stop-color="#BDBFC1" offset="87%"></stop><stop stop-color="#BCBEC0" offset="87%"></stop></linearGradient><linearGradient x1="84.9698922%" y1="47.4295924%" x2="-14.5266049%" y2="52.949378%" id="linearGradient-3"><stop stop-color="#FFFFFF" offset="49%"></stop><stop stop-color="#F8F8F8" offset="57%"></stop><stop stop-color="#E4E5E6" offset="68%"></stop><stop stop-color="#C5C6C8" offset="82%"></stop><stop stop-color="#BCBEC0" offset="85%"></stop></linearGradient><linearGradient x1="28.5235862%" y1="5.52416292%" x2="65.7548981%" y2="103.043784%" id="linearGradient-4"><stop stop-color="#FFFFFF" offset="36%"></stop><stop stop-color="#FDFDFD" offset="63%"></stop><stop stop-color="#F6F7F7" offset="73%"></stop><stop stop-color="#EBEBEC" offset="79%"></stop><stop stop-color="#DADBDC" offset="85%"></stop><stop stop-color="#C4C6C7" offset="90%"></stop><stop stop-color="#BCBEC0" offset="91%"></stop></linearGradient><linearGradient x1="-4.30097306%" y1="11.8649703%" x2="94.2955743%" y2="81.1316856%" id="linearGradient-5"><stop stop-color="#BCA4CF" offset="6%"></stop><stop stop-color="#B393C4" offset="8%"></stop><stop stop-color="#A272B0" offset="13%"></stop><stop stop-color="#9559A0" offset="19%"></stop><stop stop-color="#8B4694" offset="24%"></stop><stop stop-color="#863C8D" offset="30%"></stop><stop stop-color="#84388B" offset="36%"></stop><stop stop-color="#963D7B" offset="43%"></stop><stop stop-color="#C44B53" offset="55%"></stop><stop stop-color="#F1582B" offset="66%"></stop><stop stop-color="#F15A2A" offset="77%"></stop><stop stop-color="#F26228" offset="82%"></stop><stop stop-color="#F36F24" offset="86%"></stop><stop stop-color="#F4811E" offset="90%"></stop><stop stop-color="#F69A17" offset="93%"></stop><stop stop-color="#F8B70E" offset="95%"></stop><stop stop-color="#FADA03" offset="98%"></stop><stop stop-color="#FBE500" offset="99%"></stop></linearGradient><linearGradient x1="81.0208646%" y1="-18.3984763%" x2="21.7988526%" y2="94.3894824%" id="linearGradient-6"><stop stop-color="#F49230" offset="28%"></stop><stop stop-color="#F08E33" offset="42%"></stop><stop stop-color="#E4823D" offset="56%"></stop><stop stop-color="#CF6F4D" offset="71%"></stop><stop stop-color="#B25363" offset="85%"></stop><stop stop-color="#9C3E74" offset="94%"></stop></linearGradient></defs><g id="Page-1" stroke="none" stroke-width="1" fill="none" fill-rule="evenodd"><g id="Asset-1" fill-rule="nonzero"><polygon id="Path" fill="#17103A" points="68.8 29.5 41.2 86.2 50.6 86.2 73.2 39"></polygon><polygon id="Path" fill="#17103A" points="72.7 55.5 87.1 86.2 96.4 86.2 77.2 46"></polygon><polygon id="Path" fill="#17103A" points="432 29.5 404.5 86.2 413.8 86.2 436.4 39"></polygon><polygon id="Path" fill="#17103A" points="436 55.5 450.3 86.2 459.7 86.2 440.4 46"></polygon><path d="M125.2,30.9 C114.631213,33.7472792 106.602152,42.3581559 104.5,53.1 L104.2,54.5 L112.3,54.5 L112.5,53.6 C114.08378,46.5409981 119.427263,40.9284187 126.4,39 C134.3,36.6 143.1,39.8 148.2,46.9 L148.9,47.9 L155.3,42.8 L154.6,41.9 C148.098612,32.4024354 136.338971,28.0025695 125.2,30.9 L125.2,30.9 Z" id="Path" fill="#17103A"></path><path d="M148.2,69.2 C143.396437,76.25782 134.609896,79.4419335 126.4,77.1 C119.427263,75.1715813 114.08378,69.5590019 112.5,62.5 L112.3,61.6 L104.2,61.6 L104.5,63 C106.557688,73.7644728 114.605534,82.3954961 125.2,85.2 C127.419398,85.7868058 129.704363,86.0892276 132,86.1 C141.021729,86.0504242 149.45409,81.6103759 154.6,74.2 L155.3,73.3 L148.9,68.2 L148.2,69.2 Z" id="Path" fill="#17103A"></path><polygon id="Path" fill="#17103A" points="167.9 38 205.8 38 206 29.9 168.1 29.9"></polygon><polygon id="Path" fill="#17103A" points="182.2 86.3 191.1 86.2 191.1 45.1 182.2 45.1"></polygon><polygon id="Path" fill="#17103A" points="296.8 86.4 305 86.2 305 29.9 296.8 29.9"></polygon><path d="M337.6,47.7 C337.669075,42.6389107 335.555854,37.793075 331.8,34.4 C328.748811,31.7457153 324.930294,30.1342314 320.9,29.8 L312.2,29.8 L312.2,37.9 L314.9,37.9 C319.3,37.8 323.1,37.8 326.2,40.8 C328.493862,42.8744137 329.647847,45.9268915 329.3,49 C328.8,52.5 326,55.4 321.7,56.8 L312.2,56.8 L312.2,64.9 L317.8,64.9 L329.2,86.2 L339,86.2 L327.6,64.5 C333.7,62.2 337.6,54.4 337.6,47.7 Z" id="Path" fill="#17103A"></path><rect id="Rectangle" fill="#17103A" x="371.8" y="53.9" width="14.3" height="8.27"></rect><polygon id="Path" fill="#17103A" points="0.2 86.2 8.9 86.2 8.9 38.3 34.4 38.3 34.4 29.9 0.2 29.9"></polygon><rect id="Rectangle" fill="#17103A" x="16.1" y="54" width="13.4" height="8.03"></rect><circle id="Oval" fill="#FDB830" cx="4.6" cy="97.9" r="4.6"></circle><rect id="Rectangle" fill="#17103A" x="471.8" y="29.9" width="9.1" height="56.25"></rect><rect id="Rectangle" fill="#17103A" x="488.1" y="77.6" width="17.9" height="8.64"></rect><path d="M517.5,77.7 C515.743266,77.6595994 514.138705,78.6921599 513.447635,80.3077614 C512.756565,81.923363 513.118051,83.7968956 514.360577,85.0394225 C515.603104,86.2819494 517.476637,86.643435 519.092239,85.9523649 C520.70784,85.2612947 521.740401,83.6567339 521.7,81.9 C521.7,80.7860907 521.257501,79.7178043 520.469848,78.9301515 C519.682196,78.1424987 518.613909,77.7 517.5,77.7 L517.5,77.7 Z" id="Path" fill="#F26922"></path><polygon id="Path" fill="#17103A" points="356.3 86.2 390.8 86.2 390.8 77.7 364.9 77.7 364.7 37.9 390.8 37.8 390.8 29.9 356.3 29.9"></polygon><path d="M402.3,38 C404.397681,37.6772854 405.946165,35.8723599 405.946165,33.75 C405.946165,31.6276401 404.397681,29.8227146 402.3,29.5 C400.62601,29.2424675 398.956772,29.9915789 398.036425,31.4133835 C397.116079,32.835188 397.116079,34.664812 398.036425,36.0866165 C398.956772,37.5084211 400.62601,38.2575325 402.3,38 L402.3,38 Z" id="Path" fill="#85398C"></path><g id="Group" transform="translate(219.000000, 31.000000)"><path d="M59.4,29.3 C59.4,29.8 59.3,30.2 59.3,30.6 C58.6364859,45.7638025 46.4660793,57.8907433 31.3,58.5 C38.4956773,58.044229 44.9357752,53.8771068 48.3,47.5 C49.7845519,44.5871664 50.5719252,41.3692057 50.6,38.1 C50.6020464,35.0537608 49.918491,32.046117 48.6,29.3 C46.6880375,25.2723642 43.4851247,21.9990577 39.5,20 C37.0115283,18.7121965 34.2924569,17.9304635 31.5,17.7 L28.7,17.7 C23.3433179,18.3941329 19.1418408,22.636801 18.5,28 C18.6,26.9 18.7,25.9 18.9,24.8 L19.2,23.8 C19.3202528,23.2207026 19.4874719,22.6521577 19.7,22.1 L20.2,21 C20.4,20.7 20.5,20.3 20.7,20 C22.7370501,16.0078601 26.04391,12.8065382 30.1,10.9 C35.877483,8.13785691 42.6166907,8.24894275 48.3,11.2 C54.7031219,14.485227 58.8882308,20.915076 59.3,28.1 C59.3,28.5 59.4,28.9 59.4,29.3 Z" id="Path" fill="url(#linearGradient-1)"></path><path d="M50.6000046,38.1 C50.5719252,41.3692057 49.7845519,44.5871664 48.3,47.5 C44.9357752,53.8771068 38.4956773,58.044229 31.3,58.5 L28.9,58.5 C13.7339207,57.8907433 1.56351407,45.7638025 0.9,30.6 C1.40834752,37.7528605 5.56529491,44.1394433 11.9,47.5 C14.8166078,48.9743654 18.0321498,49.7611469 21.3,49.8 C24.3477863,49.8160215 27.3585281,49.1317619 30.1,47.8 C34.15609,45.8934618 37.4629499,42.6921399 39.5,38.7 C40.8016647,36.2231867 41.5521594,33.4941149 41.7,30.7 L41.7,30.7 C41.6850362,30.5590402 41.7204626,30.4173345 41.8,30.3 L41.8,29.3 C41.8163868,28.9635534 41.7826854,28.6265394 41.7,28.3 L41.7,28 C41.0925493,22.6202673 36.8735505,18.3599058 31.5,17.7 C34.2924569,17.9304635 37.0115283,18.7121965 39.5,20 C43.4851247,21.9990577 46.6880375,25.2723642 48.6,29.3 C49.918491,32.046117 50.6020464,35.0537608 50.6000046,38.1 L50.6000046,38.1 Z" id="Path" fill="url(#linearGradient-2)"></path><path d="M59.3,28.1 C58.8882308,20.915076 54.7031219,14.485227 48.3,11.2 C42.6166907,8.24894275 35.877483,8.13785691 30.1,10.9 C26.04391,12.8065382 22.7370501,16.0078601 20.7,20 C20.5,20.3 20.4,20.7 20.2,21 L19.7,22.1 C19.4874719,22.6521577 19.3202528,23.2207026 19.2,23.8 L18.9,24.8 C18.6351608,26.0518042 18.467991,27.3222948 18.4,28.6 L18.4,29.3 C18.3787202,29.6365537 18.4124973,29.9743246 18.5,30.3 L18.5,30.7 L18.5,30.7 C19.1156161,36.0576576 23.3423424,40.2843839 28.7,40.9 C25.9058851,40.7521594 23.1768133,40.0016647 20.7,38.7 C16.6891858,36.6882957 13.4806003,33.3739327 11.6,29.3 C10.2695749,26.5936639 9.5849708,23.615636 9.5997578,20.6 C9.62807478,17.3307943 10.4154481,14.1128336 11.9,11.2 C15.2492296,4.80919342 21.6979702,0.636478919 28.9,0.2 L31.3,0.2 C46.4660793,0.809256682 58.6364859,12.9361975 59.3,28.1 L59.3,28.1 Z" id="Path" fill="url(#linearGradient-3)"></path><path d="M41.7,30.7 C41.5521594,33.4941149 40.8016647,36.2231867 39.5,38.7 C37.4629499,42.6921399 34.15609,45.8934618 30.1,47.8 C27.3585281,49.1317619 24.3477863,49.8160215 21.3,49.800275 C18.0321498,49.7611469 14.8166078,48.9743654 11.9,47.5 C5.56529491,44.1394433 1.40834752,37.7528605 0.9,30.6 L0.9,28.1 C1.56351407,12.9361975 13.7339207,0.809256682 28.9,0.2 C21.6979702,0.636478919 15.2492296,4.80919342 11.9,11.2 C10.4154481,14.1128336 9.62807478,17.3307943 9.6,20.6 C9.5849708,23.615636 10.2695749,26.5936639 11.6,29.3 C13.4806003,33.3739327 16.6891858,36.6882957 20.7,38.7 C23.1768133,40.0016647 25.9058851,40.7521594 28.7,40.9 L31.5,40.9 C36.8748202,40.3200801 41.1200801,36.0748202 41.7,30.7 Z" id="Path" fill="url(#linearGradient-4)"></path></g><path d="M232.1,36.6 C222.478468,43.4558831 217.93624,55.4339854 220.592553,66.9457622 C223.248866,78.457539 232.580236,87.2343441 244.232987,89.181241 C255.885737,91.1281379 267.563441,85.8614482 273.817707,75.8384169 C280.071973,65.8153855 279.670263,53.0112689 272.8,43.4 C263.400546,30.3445912 245.232969,27.3092222 232.1,36.6 Z M255.9,69.8 C253.854825,71.1721219 251.461959,71.9350647 249,72 C243.922927,71.9193087 239.477456,68.5730407 237.995392,63.7164298 C236.513327,58.8598188 238.333029,53.6016439 242.5,50.7 C244.314463,49.4168888 246.477774,48.7190464 248.7,48.7 C252.600955,48.515219 256.329095,50.3228021 258.6,53.5 C262.345602,58.7490122 261.138045,66.0390765 255.9,69.8 L255.9,69.8 Z" id="Shape" fill="url(#linearGradient-5)" style="mix-blend-mode: multiply;"></path><path d="M287.7,2.2 C285.126567,0.70082368 281.973824,0.588225715 279.3,1.9 C276.622105,2.94863061 274.713131,5.35393755 274.3,8.2 L267.2,33.7 C267.153577,33.9070769 267.242932,34.1208999 267.422891,34.2333745 C267.60285,34.3458491 267.834206,34.3324697 268,34.2 L288.1,16.7 C289.038885,16.0433129 289.823694,15.19026 290.4,14.2 C292.966601,10.1404436 291.75803,4.76901438 287.7,2.2 L287.7,2.2 Z" id="Path" fill="url(#linearGradient-6)"></path><path d="M267.8,34.3 C267.8,34.3 280.1,6.1 291.5,8.4 L291.7,8.4 C291.536841,7.42808922 291.233691,6.48495396 290.8,5.6 L290.6,5.1 L290.3,4.8 L290,4.4 L289.7,4 C287.66428,1.60319278 284.471606,0.526146172 281.4,1.2 L280.9,1.2 L280.4,1.4 L279.8,1.6 C278.000889,2.22149058 276.455241,3.41585432 275.4,5 L275,5.8 C274.869352,6.21407372 274.702022,6.6156657 274.5,7 L267.2,33.6 C267.1,33.7 267.2,33.9 267.3,34.1 C267.390112,34.2856748 267.606695,34.372308 267.8,34.3 Z" id="Path" fill="#FFFFFF" opacity="0.35" style="mix-blend-mode: overlay;"></path></g></g></svg> 